<svg width="114" height="103" viewBox="0 0 114 103" fill="none" xmlns="http://www.w3.org/2000/svg">
<mask id="mask0_68_2" style="mask-type:alpha" maskUnits="userSpaceOnUse" x="0" y="0" width="110" height="103">
<ellipse cx="55.1778" cy="51.6431" rx="54.2667" ry="50.9778" fill="#BAB0FF"/>
</mask>
<g mask="url(#mask0_68_2)">
<rect x="0.91095" y="-1.80053" width="110.178" height="110.178" fill="#BAB0FF"/>
<path fill-rule="evenodd" clip-rule="evenodd" d="M109.072 56.0564C93.312 63.5077 72.7652 68.4187 57.8192 57.7288C45.0129 48.5693 21.9207 50.9419 1.28782 56.111C1.14305 54.5949 1.06909 53.0596 1.06909 51.5082C1.06909 23.4282 25.2943 0.664833 55.1776 0.664833C85.0608 0.664833 109.286 23.4282 109.286 51.5082C109.286 53.041 109.214 54.5581 109.072 56.0564Z" fill="#A79DEA"/>
<ellipse cx="13.7034" cy="84.0352" rx="25.4889" ry="18.5" transform="rotate(-14.1445 13.7034 84.0352)" fill="#7A72DE"/>
<ellipse cx="104.594" cy="51.9239" rx="21.8543" ry="15.862" transform="rotate(-19.1435 104.594 51.9239)" fill="#7A72DE"/>
</g>
<path d="M113.589 82.5701L104.528 69.7333L95.4667 83.3252L113.589 82.5701Z" fill="#BAB0FF"/>
<path d="M68.8407 61.5247C71.736 68.3853 59.0739 72.2344 55.0953 68.242C57.5095 67.5569 60.5821 66.685 62.929 65.763C65.2087 64.6039 67.7574 64.3928 68.8407 61.5247Z" fill="#373180"/>
<path d="M23.4086 43.8982C23.8547 45.4831 26.8073 46.0796 29.7396 45.1457C32.672 44.2118 34.6775 42.0678 34.2589 40.2682C33.8129 38.6832 30.8603 38.0867 27.9279 39.0207C24.9956 39.9546 22.9901 42.0985 23.4086 43.8982Z" fill="#373180"/>
<path d="M59.6796 30.7426C60.1256 32.3276 63.0783 32.9241 66.0106 31.9901C68.9429 31.0562 70.9484 28.9123 70.5299 27.1126C70.0838 25.5277 67.1312 24.9312 64.1989 25.8651C61.2665 26.799 59.261 28.943 59.6796 30.7426Z" fill="#373180"/>
<path d="M29.5807 55.6087C31.2033 56.6915 38.9617 63.1536 39.5642 60.1685C40.3833 57.2112 39.7414 53.6293 39.5051 50.3181C39.2373 48.9714 40.2967 47.576 41.6238 47.5273C42.4903 47.6383 43.3567 47.7492 43.8962 48.6933C46.594 53.4135 48.6379 59.7998 45.5386 65.0897C39.2098 73.247 29.2618 64.9733 26.4065 58.0456C25.355 55.9423 28.0133 54.0956 29.5807 55.6087Z" fill="#373180"/>
<path d="M65.8516 42.4532C67.4742 43.5359 75.2326 49.998 75.8351 47.013C76.6543 44.0557 76.0123 40.4738 75.776 37.1625C75.5082 35.8158 76.5676 34.4204 77.8948 34.3717C78.7612 34.4827 79.6276 34.5937 80.1672 35.5377C82.8649 40.2579 84.9089 46.6442 81.8095 51.9342C75.4808 60.0914 65.5327 51.8177 62.6774 44.8901C61.6259 42.7868 64.2842 40.94 65.8516 42.4532Z" fill="#373180"/>
</svg>
